<svg width="14" height="14" viewBox="0 0 14 14" fill="none" xmlns="http://www.w3.org/2000/svg">
<path d="M7 0C3.08 0 0 3.08 0 7C0 10.92 3.08 14 7 14C10.92 14 14 10.92 14 7C14 3.08 10.92 0 7 0ZM7 12.46C3.92 12.46 1.54001 9.94 1.54001 7C1.54001 4.06 4.06 1.54 7 1.54C9.94 1.54 12.46 4.06 12.46 7C12.46 9.94 10.08 12.46 7 12.46ZM10.64 6.72H7.55999V2.94C7.55999 2.66 7.28 2.38 7 2.38C6.72 2.38 6.44001 2.66 6.44001 2.94V7.28C6.44001 7.56 6.72 7.84 7 7.84H10.78C11.06 7.84 11.34 7.56 11.34 7.28C11.34 7 10.92 6.72 10.64 6.72Z" fill="#253D3F"/>
</svg>
