<svg width="14" height="15" viewBox="0 0 14 15" fill="none" xmlns="http://www.w3.org/2000/svg">
<g clip-path="url(#clip0_106_216)">
<path fill-rule="evenodd" clip-rule="evenodd" d="M13.1018 5.78172L8.09463 1.08154V4.02649C6.1994 4.25686 4.45211 5.19571 3.18407 6.66502C1.91604 8.13434 1.21541 10.5641 1.21506 12.5302C1.19915 12.7137 1.19915 12.8982 1.21506 13.0816C1.70594 11.8644 2.53648 10.2925 3.60144 9.56202C4.66641 8.83153 5.91788 8.44324 7.19729 8.44619C7.48669 8.44894 7.77573 8.46784 8.06314 8.50291V11.7236L13.2173 6.90538C13.283 6.8403 13.3353 6.76221 13.371 6.67581C13.4067 6.58942 13.4251 6.4965 13.4251 6.4026C13.4251 6.30869 13.4067 6.21577 13.371 6.12938C13.3353 6.04298 13.283 5.96489 13.2173 5.89982L13.1018 5.78172Z" stroke="#253D3F" stroke-linejoin="round"/>
</g>
<defs>
<clipPath id="clip0_106_216">
<rect width="14" height="14" fill="white" transform="translate(0 0.5)"/>
</clipPath>
</defs>
</svg>
